<svg viewBox="0 0 672 220" fill="none" xmlns="http://www.w3.org/2000/svg">
    <g clip-path="url(#clip0)">
        <path d="M305.499 23.9999C378.501 23.9999 608.499 10.5 656.999 59C692.999 99 653.999 130.5 642.499 149.5C656.999 170 648.999 170 648.999 183C642.499 224.5 355.999 210.671 355.999 210.671C355.999 210.671 99.498 212.5 62.998 202.5C32.5002 197.5 27.0002 193.5 19.5003 179C16.0002 160.5 17.5002 161.5 24.5002 147C4.50016 128.5 0.5 104.439 0.5 92C0.5 64.5 9.14618 47.3395 56.5 37C127.852 21.4206 248.584 26.8839 305.499 23.9999Z" fill="#FFFBE8"/>
        <path d="M127 3.07222C137.5 2.54036 149.692 4.6937 151.5 18.0722C152.987 29.0723 152 29.5724 145.5 38.5723C141.167 44.5723 111 44.5723 100 45.5723C89 46.5723 80 47.5723 80 47.5723C80 47.5723 71 48.7133 69 49.0723C66.5 49.521 56.2044 51.1287 43 52.0721C36 52.5723 27.5 51.5723 27.5 51.5723C27.5 51.5723 16 49.0113 16 36.5723C16 18.0722 20.5001 16.5722 62.0001 10.5722C92.5002 6.1626 94.5 6.57227 127 3.07222Z" fill="#781403"/>
        <path d="M49.9797 23.0201C50.4243 22.9655 50.9374 22.9428 51.5188 22.9521C52.1142 22.9434 52.6777 23.0032 53.2093 23.1314C53.7389 23.2437 54.1969 23.4292 54.5834 23.6881C54.9678 23.931 55.1864 24.2669 55.2391 24.6957C55.2703 24.9498 55.2251 25.1729 55.1036 25.3652C54.9822 25.5574 54.7626 25.673 54.445 25.712C54.2068 25.7413 53.9548 25.7238 53.689 25.6598C53.4391 25.5937 53.1495 25.5326 52.8202 25.4763C52.5048 25.4022 52.1348 25.3428 51.7102 25.2982C51.3015 25.2517 50.8271 25.2616 50.2872 25.3279C49.2391 25.4566 48.4843 25.7427 48.0229 26.1862C47.5755 26.6119 47.3917 27.1503 47.4717 27.8014C47.5263 28.2461 47.6832 28.6056 47.9426 28.8801C48.202 29.1545 48.528 29.3805 48.9205 29.5579C49.327 29.7176 49.7693 29.8406 50.2474 29.927C50.7414 30.0114 51.2423 30.0869 51.7502 30.1535C52.3236 30.2282 52.8929 30.3356 53.4582 30.4758C54.0394 30.614 54.5648 30.8235 55.0346 31.1044C55.5043 31.3852 55.8974 31.7641 56.2139 32.2411C56.5463 32.7161 56.7602 33.3427 56.8558 34.1209C56.9552 34.9308 56.894 35.6799 56.6722 36.368C56.4485 37.0403 56.1029 37.6389 55.6354 38.1638C55.1659 38.6728 54.5815 39.0992 53.8822 39.443C53.1809 39.7709 52.4015 39.9875 51.5439 40.0928C51.0675 40.1513 50.5058 40.1719 49.8589 40.1546C49.2139 40.1532 48.5929 40.0843 47.9959 39.9481C47.3969 39.7959 46.8774 39.5696 46.4375 39.2689C45.9956 38.9524 45.7425 38.5321 45.6782 38.0081C45.6392 37.6905 45.6874 37.4266 45.8228 37.2166C45.9741 37.0045 46.2165 36.8781 46.55 36.8371C46.8199 36.804 47.0491 36.8322 47.2374 36.922C47.4238 36.9958 47.5883 37.0884 47.731 37.1999C48.2581 37.5543 48.8322 37.7659 49.4532 37.8347C50.0742 37.9036 50.7023 37.899 51.3375 37.821C51.7028 37.7761 52.081 37.7055 52.4722 37.6091C52.8773 37.4949 53.2359 37.33 53.5479 37.1143C53.86 36.8987 54.1076 36.6184 54.291 36.2735C54.4724 35.9127 54.5289 35.4544 54.4607 34.8986C54.3983 34.3904 54.2444 33.9902 53.9989 33.6979C53.7674 33.3878 53.4712 33.1421 53.1104 32.9607C52.7496 32.7793 52.3302 32.6454 51.8521 32.559C51.3899 32.4707 50.888 32.3873 50.3464 32.3087C49.7393 32.222 49.1382 32.1185 48.5431 31.9981C47.948 31.8778 47.4086 31.6861 46.9249 31.423C46.4393 31.1442 46.0234 30.7761 45.6771 30.3189C45.3447 29.8439 45.1308 29.2173 45.0352 28.4391C44.9397 27.661 44.9987 26.9605 45.2125 26.3378C45.4262 25.7152 45.7548 25.1751 46.1983 24.7176C46.6419 24.2602 47.1845 23.8872 47.8261 23.5989C48.4837 23.3086 49.2015 23.1157 49.9797 23.0201ZM70.8519 37.6253C70.5978 37.6565 70.3865 37.6422 70.2179 37.5823C70.0633 37.5045 69.9375 37.3991 69.8406 37.2659C69.7436 37.1327 69.6676 36.9728 69.6124 36.7861C69.5553 36.5836 69.5051 36.3721 69.462 36.1517C69.1254 36.6928 68.66 37.169 68.0657 37.5805C67.4873 37.9901 66.7137 38.2543 65.745 38.3733C65.1256 38.4493 64.4797 38.44 63.8071 38.3452C63.1485 38.2327 62.5299 37.9862 61.9512 37.6059C61.3706 37.2097 60.8667 36.6509 60.4396 35.9296C60.0126 35.2083 59.7278 34.268 59.5855 33.1087C59.4743 32.2035 59.4812 31.3402 59.606 30.5189C59.7309 29.6975 59.9795 28.9658 60.3521 28.3236C60.7385 27.6636 61.2517 27.117 61.8917 26.6837C62.5317 26.2505 63.3122 25.9774 64.2333 25.8643C65.0432 25.7648 65.7843 25.827 66.4566 26.0507C67.1269 26.2586 67.7571 26.6648 68.3472 27.2694C68.3238 27.0788 68.3083 26.8873 68.3008 26.6947C68.2913 26.4863 68.3086 26.2988 68.3526 26.1322C68.4106 25.9478 68.5131 25.7982 68.6602 25.6834C68.8054 25.5527 69.0129 25.4708 69.2829 25.4377C69.5211 25.4084 69.7552 25.4764 69.985 25.6416C70.2149 25.8069 70.3847 26.2051 70.4944 26.8365C70.6454 27.6723 70.7698 28.4227 70.8676 29.0878C70.9812 29.7509 71.0819 30.4397 71.1697 31.1544C71.2769 32.0278 71.3674 32.8308 71.4413 33.5632C71.5151 34.2957 71.5709 35.0787 71.6088 35.9123C71.6219 36.2815 71.6103 36.5811 71.5741 36.8112C71.5518 37.0235 71.5078 37.1901 71.442 37.3111C71.3743 37.4161 71.2868 37.4913 71.1796 37.5367C71.0723 37.5821 70.9631 37.6117 70.8519 37.6253ZM68.8227 31.7327C68.7213 30.9069 68.5113 30.2476 68.1929 29.7547C67.8903 29.2599 67.5309 28.8929 67.1147 28.6539C66.7124 28.397 66.29 28.2393 65.8476 28.1808C65.4052 28.1223 65.0013 28.1154 64.6361 28.1603C64.0644 28.2305 63.5847 28.3942 63.1972 28.6513C62.8255 28.9065 62.5351 29.2323 62.3258 29.6288C62.1146 30.0094 61.9757 30.4536 61.9091 30.9615C61.8565 31.4516 61.8652 31.9825 61.9354 32.5542C62.107 33.9517 62.5355 34.9469 63.2209 35.5398C63.9221 36.1307 64.7968 36.3618 65.8449 36.2331C66.4643 36.1571 66.9757 35.9895 67.3791 35.7304C67.7965 35.4535 68.1177 35.1158 68.3428 34.7174C68.5838 34.3171 68.7376 33.8629 68.8042 33.355C68.8848 32.8293 68.8909 32.2885 68.8227 31.7327ZM78.3474 23.9862C78.6809 23.9452 79.1056 23.9253 79.6216 23.9264C80.1357 23.9117 80.6327 23.9554 81.1127 24.0577C81.5908 24.1441 82.0132 24.3018 82.3798 24.5308C82.7465 24.7598 82.9551 25.0808 83.0058 25.4937C83.0351 25.7319 82.989 25.9471 82.8675 26.1394C82.7619 26.3297 82.5662 26.4423 82.2803 26.4774C82.0739 26.5028 81.8318 26.5003 81.554 26.4699C81.2921 26.4376 80.9975 26.4012 80.6701 26.3608C80.3567 26.3026 80.0134 26.2641 79.6404 26.2454C79.2832 26.2248 78.9061 26.2389 78.5091 26.2876C77.8421 26.3695 77.3069 26.54 76.9034 26.7991C76.5159 27.0563 76.3494 27.4072 76.404 27.8518C76.4352 28.1059 76.533 28.3115 76.6974 28.4687C76.8776 28.6239 77.1036 28.7573 77.3752 28.8691C77.6608 28.963 77.9841 29.0361 78.3452 29.0885C78.7222 29.1389 79.115 29.1874 79.5237 29.2339C80.0316 29.3005 80.5335 29.384 81.0294 29.4843C81.5412 29.5827 82.0053 29.7514 82.4215 29.9904C82.8358 30.2136 83.1884 30.525 83.4792 30.9245C83.7681 31.3081 83.9506 31.8096 84.0267 32.429C84.1709 33.6042 83.8413 34.5957 83.0378 35.4037C82.2323 36.1957 80.9641 36.698 79.2331 36.9106C78.852 36.9574 78.3955 36.9812 77.8636 36.982C77.3337 36.9987 76.8287 36.9559 76.3487 36.8537C75.8706 36.7673 75.4482 36.6096 75.0816 36.3806C74.7288 36.1337 74.5242 35.78 74.4677 35.3195C74.4287 35.0019 74.4709 34.7549 74.5943 34.5785C74.7317 34.3843 74.9115 34.2736 75.1338 34.2463C75.3085 34.2248 75.498 34.258 75.7022 34.3458C75.9064 34.4335 76.1513 34.5244 76.4369 34.6183C76.7225 34.7122 77.0626 34.7913 77.4574 34.8557C77.8522 34.92 78.3275 34.9181 78.8833 34.8498C79.0898 34.8245 79.3588 34.7834 79.6903 34.7266C80.0199 34.6539 80.3367 34.5424 80.6407 34.3923C80.9605 34.2402 81.2199 34.0552 81.4188 33.8373C81.6317 33.6016 81.7157 33.3011 81.6709 32.9359C81.6358 32.65 81.5271 32.4215 81.3449 32.2505C81.1608 32.0635 80.9249 31.9152 80.6374 31.8054C80.3499 31.6956 80.0176 31.6155 79.6407 31.5651C79.2776 31.4968 78.8908 31.4315 78.4801 31.369C78.004 31.2985 77.518 31.2131 77.022 31.1128C76.542 31.0106 76.0958 30.8558 75.6835 30.6485C75.2711 30.4412 74.9225 30.1616 74.6375 29.8097C74.3505 29.4419 74.1719 28.9722 74.1017 28.4005C74.0354 27.8606 74.0852 27.3467 74.251 26.8588C74.4148 26.3551 74.6817 25.9032 75.0517 25.5031C75.4217 25.1031 75.8809 24.7726 76.4292 24.5119C76.9934 24.2492 77.6328 24.0739 78.3474 23.9862ZM91.9633 24.9984C91.3757 25.0705 90.8544 25.2232 90.3995 25.4564C89.9604 25.6876 89.4656 25.9902 88.915 26.364C88.917 26.3799 88.9355 26.5308 88.9706 26.8166C89.0057 27.1025 89.0426 27.4687 89.0813 27.9153C89.1359 28.36 89.1894 28.8612 89.2418 29.419C89.3081 29.9589 89.3674 30.5078 89.4198 31.0656C89.4861 31.6055 89.5335 32.1236 89.5622 32.6198C89.6068 33.114 89.6416 33.5289 89.6667 33.8643C89.6759 34.2017 89.6683 34.4686 89.6441 34.6651C89.6357 34.8595 89.6056 35.0083 89.5538 35.1114C89.5159 35.1966 89.4503 35.2531 89.357 35.2806C89.2636 35.3082 89.1614 35.3288 89.0502 35.3425C88.7803 35.3756 88.5639 35.3861 88.4012 35.3738C88.2563 35.3755 88.1314 35.3425 88.0263 35.2748C87.9194 35.1912 87.8313 35.065 87.7622 34.8961C87.709 34.7253 87.648 34.491 87.5792 34.1932C87.5104 33.8954 87.4279 33.4864 87.3318 32.9662C87.2496 32.4282 87.1606 31.8346 87.0648 31.1855C86.967 30.5204 86.8644 29.8157 86.7569 29.0712C86.6652 28.3248 86.5745 27.5864 86.4848 26.8559C86.3952 26.1254 86.3006 25.3551 86.2011 24.5452C86.1156 23.7175 86.035 22.9294 85.9592 22.1811C85.8815 21.4169 85.8145 20.74 85.7582 20.1504C85.7 19.545 85.6693 19.0974 85.6659 18.8077C85.647 18.3909 85.6746 18.0248 85.7487 17.7094C85.8387 17.3921 86.0901 17.2081 86.503 17.1574C86.8206 17.1184 87.0884 17.1983 87.3063 17.3973C87.54 17.5942 87.7108 18.0005 87.8186 18.6159C87.9186 19.1678 88.038 19.9431 88.1767 20.9416C88.3293 21.9223 88.4897 23.031 88.6576 24.2678C88.8585 24.0658 89.109 23.8738 89.4091 23.6919C89.7072 23.4941 90.0251 23.3261 90.3627 23.1879C90.6985 23.0339 91.0451 22.9026 91.4025 22.7943C91.76 22.6859 92.0975 22.6122 92.4151 22.5732C93.1774 22.4796 93.8589 22.5813 94.4596 22.8783C95.0742 23.1575 95.5892 23.6101 96.0045 24.2362C96.2795 24.6377 96.5048 25.0936 96.6803 25.604C96.8538 26.0986 96.9995 26.6288 97.1174 27.1946C97.1645 27.4468 97.2115 27.6989 97.2586 27.951C97.3038 28.1873 97.3439 28.4484 97.379 28.7342C97.428 29.0022 97.474 29.3109 97.5169 29.6603C97.5598 30.0097 97.6105 30.4226 97.6689 30.899C97.7274 31.3754 97.7741 31.8211 97.8089 32.2359C97.8418 32.6349 97.837 32.9901 97.7947 33.3016C97.7663 33.5952 97.6834 33.8392 97.546 34.0333C97.4067 34.2117 97.1941 34.3184 96.9083 34.3535C96.4954 34.4042 96.1701 34.3151 95.9324 34.0864C95.7087 33.8398 95.5744 33.5339 95.5296 33.1686C95.5277 33.1528 95.5072 32.986 95.4682 32.6684C95.4292 32.3508 95.3764 31.9865 95.3098 31.5756C95.2572 31.1468 95.1966 30.719 95.128 30.2921C95.0754 29.8634 95.0246 29.515 94.9755 29.2469C94.9285 28.9948 94.8715 28.7277 94.8046 28.4458C94.7517 28.146 94.6829 27.8482 94.5982 27.5523C94.5294 27.2545 94.4466 26.9745 94.35 26.7123C94.2514 26.4342 94.1408 26.1899 94.0182 25.9793C93.7315 25.4825 93.4126 25.1831 93.0616 25.0811C92.7105 24.9792 92.3444 24.9516 91.9633 24.9984ZM111.536 32.63C111.282 32.6612 111.07 32.6468 110.902 32.5869C110.747 32.5092 110.621 32.4037 110.524 32.2705C110.427 32.1374 110.351 31.9774 110.296 31.7908C110.239 31.5882 110.189 31.3768 110.146 31.1564C109.809 31.6974 109.344 32.1737 108.75 32.5852C108.171 32.9947 107.398 33.259 106.429 33.3779C105.809 33.454 105.164 33.4446 104.491 33.3499C103.832 33.2373 103.214 32.9909 102.635 32.6105C102.054 32.2144 101.551 31.6556 101.123 30.9343C100.696 30.2129 100.412 29.2726 100.269 28.1133C100.158 27.2081 100.165 26.3449 100.29 25.5235C100.415 24.7022 100.663 23.9704 101.036 23.3282C101.422 22.6682 101.936 22.1216 102.576 21.6884C103.216 21.2552 103.996 20.982 104.917 20.8689C105.727 20.7695 106.468 20.8316 107.14 21.0554C107.811 21.2632 108.441 21.6694 109.031 22.274C109.008 22.0835 108.992 21.8919 108.985 21.6994C108.975 21.491 108.992 21.3035 109.036 21.1369C109.094 20.9524 109.197 20.8028 109.344 20.6881C109.489 20.5574 109.697 20.4755 109.967 20.4423C110.205 20.4131 110.439 20.4811 110.669 20.6463C110.899 20.8115 111.069 21.2098 111.178 21.8411C111.329 22.6769 111.454 23.4274 111.551 24.0924C111.665 24.7555 111.766 25.4444 111.854 26.159C111.961 27.0324 112.051 27.8354 112.125 28.5679C112.199 29.3003 112.255 30.0834 112.293 30.917C112.306 31.2861 112.294 31.5858 112.258 31.8159C112.236 32.0282 112.192 32.1948 112.126 32.3157C112.058 32.4207 111.971 32.496 111.863 32.5414C111.756 32.5868 111.647 32.6163 111.536 32.63ZM109.507 26.7373C109.405 25.9116 109.195 25.2522 108.877 24.7594C108.574 24.2645 108.215 23.8976 107.799 23.6585C107.396 23.4017 106.974 23.244 106.531 23.1854C106.089 23.1269 105.685 23.1201 105.32 23.1649C104.748 23.2351 104.269 23.3988 103.881 23.656C103.509 23.9111 103.219 24.237 103.01 24.6334C102.798 25.014 102.66 25.4582 102.593 25.9661C102.54 26.4562 102.549 26.9871 102.619 27.5588C102.791 28.9563 103.219 29.9515 103.905 30.5444C104.606 31.1354 105.481 31.3665 106.529 31.2378C107.148 31.1617 107.66 30.9942 108.063 30.7351C108.48 30.4581 108.802 30.1205 109.027 29.7221C109.268 29.3217 109.421 28.8676 109.488 28.3597C109.569 27.834 109.575 27.2932 109.507 26.7373Z" fill="#F9F2C7"/>
        <path d="M336.782 205.111C331.282 205.111 325.365 202.611 323.282 205.111C321.199 207.611 331.283 216.112 333.282 217.112C335.282 218.112 336.782 218.112 339.282 217.112C341.783 216.112 350.782 207.611 349.282 205.111C347.782 202.611 342.282 205.111 336.782 205.111Z" fill="#F6BA09"/>
    </g>
    <defs>
        <clipPath id="clip0">
            <path d="M0 0H672V220H0V0Z" fill="white"/>
        </clipPath>
    </defs>
</svg>
